<svg width="27.000000" height="26.000000" viewBox="0 0 27 26" fill="none" xmlns="http://www.w3.org/2000/svg" xmlns:xlink="http://www.w3.org/1999/xlink">
	<desc>
			Created with Pixso.
	</desc>
	<defs>
		<linearGradient x1="0.000000" y1="13.000000" x2="27.000000" y2="13.000000" id="paint_linear_2433_125_0" gradientUnits="userSpaceOnUse">
			<stop stop-color="#ACC246"/>
			<stop offset="1.000000" stop-color="#90A91F"/>
		</linearGradient>
	</defs>
	<path id="svg" d="M13 0L14 0C21.17 0 27 5.82 27 13C27 20.17 21.17 26 14 26L13 26C5.82 26 0 20.17 0 13C0 5.82 5.82 0 13 0Z" fill="url(#paint_linear_2433_125_0)" fill-opacity="0" fill-rule="nonzero"/>
	<path id="svg" d="M13 0L14 0C21.17 0 27 5.82 27 13C27 20.17 21.17 26 14 26L13 26C5.82 26 0 20.17 0 13C0 5.82 5.82 0 13 0Z" fill="#FFFFFF" fill-opacity="1.000000" fill-rule="nonzero"/>
	<path id="svg" d="M17.6 11.61L13.4 9.18C12.61 8.73 12.21 8.5 11.89 8.54C11.61 8.57 11.35 8.71 11.19 8.94C11 9.21 11 9.66 11 10.57L11 15.42C11 16.33 11 16.78 11.19 17.05C11.35 17.28 11.61 17.42 11.89 17.45C12.21 17.49 12.61 17.26 13.4 16.81L17.6 14.38C18.38 13.93 18.78 13.7 18.91 13.4C19.02 13.14 19.02 12.85 18.91 12.59C18.78 12.29 18.38 12.06 17.6 11.61Z" fill="#FAB69D" fill-opacity="1.000000" fill-rule="evenodd"/>
</svg>
