<svg width="44.000000" height="44.000000" viewBox="0 0 44 44" fill="none" xmlns="http://www.w3.org/2000/svg" xmlns:xlink="http://www.w3.org/1999/xlink">
	<desc>
			Created with Pixso.
	</desc>
	<defs/>
	<path id="svg" d="M0 22C0 9.84 9.84 0 22 0L22 0C34.15 0 44 9.84 44 22L44 22C44 34.15 34.15 44 22 44L22 44C9.84 44 0 34.15 0 22L0 22Z" fill="#FAB69D" fill-opacity="1.000000" fill-rule="nonzero"/>
	<path id="svg" d="M22 0C9.84 0 0 9.84 0 22C0 34.15 9.84 44 22 44C34.15 44 44 34.15 44 22C44 9.84 34.15 0 22 0ZM2.72 29.98Q1.19 26.3 1.19 22Q1.19 17.69 2.72 14.01Q4.24 10.33 7.29 7.29Q10.33 4.24 14.01 2.72Q17.69 1.2 22 1.2Q26.3 1.2 29.98 2.72Q33.66 4.24 36.7 7.29Q39.75 10.33 41.27 14.01Q42.8 17.69 42.8 22Q42.8 26.3 41.27 29.98Q39.75 33.66 36.7 36.7Q33.66 39.75 29.98 41.27Q26.3 42.79 22 42.79Q17.69 42.79 14.01 41.27Q10.33 39.75 7.29 36.7Q4.24 33.66 2.72 29.98Z" fill="#FFFFFF" fill-opacity="1.000000" fill-rule="evenodd"/>
	<path id="svg" d="M12 13C18.04 18.76 24.51 25.76 31 31" stroke="#FFFFFF" stroke-opacity="1.000000" stroke-width="3.600000" stroke-linecap="round"/>
	<path id="svg" d="M32 12C27.99 17.27 27.5 17.45 22.69 21.89C20.79 23.64 14.52 29.83 13 32" stroke="#FFFFFF" stroke-opacity="1.000000" stroke-width="3.600000" stroke-linecap="round"/>
</svg>
