<svg width="134.730804" height="99.645874" viewBox="0 0 134.731 99.6459" fill="none" xmlns="http://www.w3.org/2000/svg" xmlns:xlink="http://www.w3.org/1999/xlink">
	<desc>
			Created with Pixso.
	</desc>
	<defs/>
	<path id="svg" d="M16.03 26.22C14.35 27.48 13.43 29.18 13.85 31L33.3 24.66C32.84 23.75 31.95 22.73 30.86 22.33C30.11 22.06 29.19 22.16 28.39 22.35C27.23 22.61 26.07 22.89 24.92 23.17C23.05 23.61 21.18 24.04 19.33 24.54C18.09 24.88 17.02 25.48 16.03 26.22Z" fill="#FFE9D8" fill-opacity="1.000000" fill-rule="nonzero"/>
	<path id="svg" d="M16.03 26.22C17.02 25.48 18.09 24.88 19.33 24.54C21.18 24.04 23.05 23.61 24.92 23.17C26.07 22.89 27.23 22.61 28.39 22.35C29.19 22.16 30.11 22.06 30.86 22.33C31.95 22.73 32.84 23.75 33.3 24.66L13.85 31C13.43 29.18 14.35 27.48 16.03 26.22Z" stroke="#FFE9D8" stroke-opacity="1.000000" stroke-width="2.250000"/>
	<path id="svg" d="M84 10.93C83.97 11.34 83.92 11.75 84.02 12.15L101.61 9.04C101.46 8.4 101.14 7.78 100.79 7.19C100.26 6.3 99.54 5.93 98.54 5.56C97.79 5.28 96.94 5.25 96.14 5.35C95.38 5.44 94.59 5.51 93.84 5.66C92.83 5.86 91.82 6.13 90.81 6.37C89.77 6.61 88.7 6.81 87.68 7.12C86.88 7.37 85.85 7.6 85.14 8.07C84.82 8.28 84.68 8.44 84.44 8.71L84.44 8.71C84.08 9.11 84.29 9.54 84.05 9.96C83.95 10.13 84.02 10.73 84 10.93Z" fill="#FFE9D8" fill-opacity="1.000000" fill-rule="nonzero"/>
	<path id="svg" d="M84 10.93C84.02 10.73 83.95 10.13 84.05 9.96C84.29 9.54 84.08 9.11 84.44 8.71C84.68 8.44 84.82 8.29 85.14 8.07C85.85 7.6 86.88 7.37 87.68 7.12C88.7 6.81 89.77 6.61 90.81 6.37C91.82 6.13 92.83 5.86 93.84 5.66C94.59 5.51 95.38 5.44 96.14 5.35C96.94 5.25 97.79 5.28 98.54 5.56C99.54 5.93 100.26 6.3 100.79 7.19C101.14 7.78 101.46 8.4 101.61 9.04L84.02 12.15C83.92 11.75 83.97 11.34 84 10.93Z" stroke="#FFE9D8" stroke-opacity="1.000000" stroke-width="2.250000"/>
	<path id="svg" d="M15.28 31.94C12.28 33.32 7.12 38.89 8.42 51.39C10.1 67.54 12.16 89.37 18.38 93.68C24.59 97.98 32.57 95.32 40.12 75.55C41.03 73.15 42.54 69.27 47.59 67.29C53.55 64.95 58.32 61.95 88.82 55.67C104.03 52.53 111.6 78.61 126.24 73.87C133.53 71.51 133.47 61.98 129.26 50.66C125.05 39.33 117.01 10.07 102.74 9.19C88.75 8.34 21.52 28.56 15.84 31.66C15.66 31.76 15.47 31.86 15.28 31.94Z" fill="#FAB69D" fill-opacity="1.000000" fill-rule="evenodd"/>
	<path id="svg" d="M27.29 44.09L28.21 47.98C28.39 48.74 27.95 49.51 27.2 49.75L22.65 51.19C21.9 51.43 21.46 52.2 21.64 52.96L22.38 56.13C22.57 56.93 23.38 57.43 24.19 57.24L29.14 56.08C29.94 55.89 30.75 56.39 30.94 57.2L32 61.73C32.2 62.57 33.08 63.07 33.91 62.82L36.82 61.92C37.57 61.69 38.02 60.91 37.84 60.14L36.82 55.81C36.63 55 37.13 54.2 37.94 54.01L42.35 52.97C43.16 52.78 43.66 51.97 43.47 51.17L42.75 48.11C42.56 47.3 41.75 46.8 40.94 46.99L36.46 48.05C35.68 48.23 34.9 47.77 34.67 47L33.33 42.37C33.1 41.57 32.26 41.11 31.46 41.36L28.31 42.31C27.56 42.55 27.11 43.32 27.29 44.09Z" fill="#FFE9D8" fill-opacity="1.000000" fill-rule="nonzero"/>
	<path id="svg" d="M27.29 44.09C27.11 43.32 27.56 42.55 28.31 42.31L31.46 41.36C32.26 41.11 33.1 41.57 33.33 42.37L34.67 47C34.9 47.77 35.68 48.23 36.46 48.05L40.94 46.99C41.75 46.8 42.56 47.3 42.75 48.11L43.47 51.17C43.66 51.97 43.16 52.78 42.35 52.97L37.94 54.01C37.13 54.2 36.63 55 36.82 55.81L37.84 60.14C38.02 60.91 37.57 61.69 36.82 61.92L33.91 62.82C33.08 63.07 32.2 62.57 32 61.73L30.94 57.2C30.75 56.39 29.94 55.89 29.14 56.08L24.19 57.24C23.38 57.43 22.57 56.93 22.38 56.13L21.64 52.96C21.46 52.2 21.9 51.43 22.65 51.19L27.2 49.75C27.95 49.51 28.39 48.74 28.21 47.98L27.29 44.09Z" stroke="#FFE9D8" stroke-opacity="1.000000" stroke-width="0.750000"/>
	<path id="svg" d="M98.83 23.07C99.46 23.73 100.06 24.71 100.33 25.87C100.68 27.36 100.88 27.94 100.23 29.05C99.37 30.53 97.72 30.94 96.8 31.09C95.23 31.35 93.57 30.82 92.61 29.69C91.59 28.48 90.99 26.28 91.85 24.8C92.65 23.41 94.08 22.61 95.67 22.22C96.88 21.92 98.19 22.41 98.83 23.07Z" fill="#FFE9D8" fill-opacity="1.000000" fill-rule="nonzero"/>
	<path id="svg" d="M98.83 23.07C98.19 22.41 96.88 21.92 95.67 22.22C94.08 22.61 92.65 23.41 91.85 24.8C90.99 26.28 91.59 28.48 92.61 29.69C93.57 30.82 95.23 31.35 96.8 31.09C97.72 30.94 99.37 30.53 100.23 29.05C100.88 27.94 100.68 27.36 100.33 25.87C100.06 24.71 99.46 23.73 98.83 23.07Z" stroke="#FFE9D8" stroke-opacity="1.000000" stroke-width="2.250000"/>
	<path id="svg" d="M92.19 33.79C92.82 34.45 93.42 35.43 93.69 36.59C94.05 38.09 94.25 38.66 93.6 39.78C92.73 41.26 91.08 41.66 90.16 41.82C88.59 42.08 86.93 41.55 85.97 40.41C84.95 39.2 84.35 37.01 85.21 35.52C86.02 34.13 87.44 33.33 89.03 32.94C90.25 32.64 91.55 33.13 92.19 33.79Z" fill="#FFE9D8" fill-opacity="1.000000" fill-rule="nonzero"/>
	<path id="svg" d="M92.19 33.79C91.55 33.13 90.25 32.64 89.03 32.94C87.44 33.33 86.02 34.13 85.21 35.52C84.35 37.01 84.95 39.2 85.97 40.41C86.93 41.55 88.59 42.08 90.16 41.82C91.08 41.66 92.73 41.26 93.6 39.78C94.25 38.66 94.05 38.09 93.69 36.59C93.42 35.43 92.82 34.45 92.19 33.79Z" stroke="#FFE9D8" stroke-opacity="1.000000" stroke-width="2.250000"/>
	<path id="svg" d="M111.44 26.64C112.08 27.3 112.68 28.28 112.95 29.44C113.3 30.94 113.5 31.51 112.85 32.63C111.99 34.11 110.34 34.51 109.42 34.67C107.85 34.93 106.19 34.4 105.23 33.26C104.21 32.05 103.61 29.86 104.47 28.37C105.27 26.98 106.7 26.18 108.29 25.79C109.5 25.49 110.81 25.99 111.44 26.64Z" fill="#FFE9D8" fill-opacity="1.000000" fill-rule="nonzero"/>
	<path id="svg" d="M111.44 26.64C110.81 25.99 109.5 25.49 108.29 25.79C106.7 26.18 105.27 26.98 104.47 28.37C103.61 29.86 104.21 32.05 105.23 33.26C106.19 34.4 107.85 34.93 109.42 34.67C110.34 34.51 111.99 34.11 112.85 32.63C113.5 31.51 113.3 30.94 112.95 29.44C112.68 28.28 112.08 27.3 111.44 26.64Z" stroke="#FFE9D8" stroke-opacity="1.000000" stroke-width="2.250000"/>
	<path id="svg" d="M104.81 37.37C105.44 38.02 106.04 39 106.31 40.17C106.67 41.66 106.87 42.24 106.22 43.35C105.35 44.83 103.7 45.24 102.78 45.39C101.21 45.65 99.55 45.12 98.59 43.98C97.57 42.78 96.97 40.58 97.83 39.09C98.64 37.7 100.06 36.9 101.65 36.51C102.87 36.22 104.18 36.71 104.81 37.37Z" fill="#FFE9D8" fill-opacity="1.000000" fill-rule="nonzero"/>
	<path id="svg" d="M104.81 37.37C104.18 36.71 102.87 36.22 101.65 36.51C100.06 36.9 98.64 37.7 97.83 39.09C96.97 40.58 97.57 42.78 98.59 43.98C99.55 45.12 101.21 45.65 102.78 45.39C103.7 45.24 105.35 44.83 106.22 43.35C106.87 42.24 106.67 41.66 106.31 40.17C106.04 39 105.44 38.02 104.81 37.37Z" stroke="#FFE9D8" stroke-opacity="1.000000" stroke-width="2.250000"/>
	<path id="svg" d="M89.28 35.69C88.99 36.28 88.73 36.87 88.47 37.47C88.31 37.82 88.29 37.95 88.71 38.01C89.38 38.11 90.14 38.2 90.82 38.16C91.1 38.15 90.75 37.69 90.67 37.56C90.33 36.97 89.96 36.37 89.53 35.84C89.34 35.61 89.39 35.65 89.4 35.94C89.43 36.46 89.45 36.97 89.48 37.48" stroke="#C0D077" stroke-opacity="1.000000" stroke-width="1.500000" stroke-linecap="round"/>
	<path id="svg" d="M107.23 27.36C107.7 28.2 108.29 28.96 108.84 29.74C109.02 30.02 109.12 29.42 109.2 29.23C109.4 28.79 109.56 28.32 109.66 27.85C109.68 27.73 109.8 27.46 109.77 27.35C109.73 27.17 109.05 27.27 108.94 27.28C108.51 27.3 107.25 27.36 107.67 27.34" stroke="#C0D077" stroke-opacity="1.000000" stroke-width="1.500000" stroke-linecap="round"/>
	<path id="svg" d="M108.45 28.56C108.68 28.51 108.47 28.06 108.39 27.93C108.19 27.66 108.05 27.63 107.8 27.64C107.73 27.64 107.03 27.55 107.29 27.35" stroke="#C0D077" stroke-opacity="1.000000" stroke-width="1.500000" stroke-linecap="round"/>
	<path id="svg" d="M99.9 41.18C100.01 40.94 100.23 40.83 100.47 40.71C100.97 40.47 101.49 40.26 102 40.02C102.11 39.96 103.48 39.23 103.46 39.46C103.44 39.63 103.26 39.83 103.18 39.98C103.04 40.23 102.93 40.5 102.82 40.76C102.68 41.08 102.64 41.42 102.5 41.73C102.48 41.79 102.44 42.01 102.35 42.02C102.16 42.03 101.92 41.88 101.75 41.82C101.19 41.63 100.62 41.42 100.07 41.19C99.96 41.14 99.86 41.11 99.75 41.07C99.56 41 100.15 41.05 100.34 41.04C100.86 41.01 101.37 40.95 101.88 40.84" stroke="#C0D077" stroke-opacity="1.000000" stroke-width="1.500000" stroke-linecap="round"/>
	<path id="svg" d="M95.31 28.68C95.61 28.22 95.95 27.78 96.25 27.31C96.48 26.94 96.53 26.6 96.62 26.2C96.65 26.08 97.15 26.65 97.21 26.7C97.62 27.06 98.11 27.45 98.64 27.67C98.75 27.71 99.03 27.75 99.09 27.86C99.12 27.91 98.96 27.9 98.9 27.91C98.59 27.96 98.28 28.03 97.98 28.1C97.31 28.26 96.64 28.4 95.98 28.59C95.83 28.63 95.68 28.7 95.59 28.79" stroke="#C0D077" stroke-opacity="1.000000" stroke-width="1.500000" stroke-linecap="round"/>
	<path id="svg" d="M32.75 50.37C32.24 50.36 31.68 50.29 31.58 50.86C31.49 51.42 31.61 51.97 32.05 52.37C32.36 52.65 33.18 53.09 33.6 52.74C34.36 52.11 34.33 50.75 33.22 50.54C31.91 50.31 32.15 51.92 33.14 52.06C33.37 52.09 33.44 51.65 33.42 51.5C33.39 51.24 32.83 51.25 32.64 51.24" stroke="#C0D077" stroke-opacity="1.000000" stroke-width="1.500000" stroke-linecap="round"/>
</svg>
